<svg xmlns="http://www.w3.org/2000/svg" fill="currentColor" viewBox="0 0 134 134"><path d="M46.875 86.458H20.833c-1.726 0-3.125-1.399-3.125-3.125v-44.01c1.016.171 2.06.26 3.125.26s2.109-.089 3.125-.26v40.885h22.917V50c0-1.726 1.399-3.125 3.125-3.125h30.208V23.958H39.323c.171-1.016.26-2.06.26-3.125s-.089-2.109-.26-3.125h44.01c1.726 0 3.125 1.399 3.125 3.125v26.042H112.5c1.726 0 3.125 1.399 3.125 3.125v44.01c-1.016-.171-2.06-.26-3.125-.26s-2.109.089-3.125.26V53.125H86.458v30.208c0 1.726-1.399 3.125-3.125 3.125H53.125v22.917H94.01c-.171 1.016-.26 2.06-.26 3.125s.089 2.109.26 3.125H50c-1.726 0-3.125-1.399-3.125-3.125V86.458Zm33.333-33.333H53.125v27.083h27.083V53.125ZM112.5 10.417c5.749 0 10.417 4.668 10.417 10.417s-4.668 10.417-10.417 10.417-10.417-4.668-10.417-10.417 4.668-10.417 10.417-10.417Zm-91.667 91.667c5.749 0 10.417 4.668 10.417 10.417s-4.668 10.417-10.417 10.417-10.417-4.668-10.417-10.417 4.668-10.417 10.417-10.417Zm0-91.667c5.749 0 10.417 4.668 10.417 10.417s-4.668 10.417-10.417 10.417-10.417-4.668-10.417-10.417 4.668-10.417 10.417-10.417Zm91.667 91.667c5.749 0 10.417 4.668 10.417 10.417s-4.668 10.417-10.417 10.417-10.417-4.668-10.417-10.417 4.668-10.417 10.417-10.417Z"/></svg>
