<svg xmlns="http://www.w3.org/2000/svg" fill="currentColor" viewBox="0 0 134 134"><path d="M94.01 53.125H68.491c.171-1.016.26-2.06.26-3.125s-.089-2.109-.26-3.125h11.718v-7.551c1.016.171 2.06.26 3.125.26s2.109-.089 3.125-.26v7.551h7.551c-.171 1.016-.26 2.06-.26 3.125s.089 2.109.26 3.125ZM46.875 86.458h-7.551c.171-1.016.26-2.06.26-3.125s-.089-2.109-.26-3.125h7.551V68.49c1.016.171 2.06.26 3.125.26s2.109-.089 3.125-.26v25.519c-1.016-.171-2.06-.26-3.125-.26s-2.109.089-3.125.26v-7.551ZM17.708 64.843V39.324c1.016.171 2.06.26 3.125.26s2.109-.089 3.125-.26v25.519c-1.016-.171-2.06-.26-3.125-.26s-2.109.089-3.125.26Zm47.135-40.885H39.324c.171-1.016.26-2.06.26-3.125s-.089-2.109-.26-3.125h25.519c-.171 1.016-.26 2.06-.26 3.125s.089 2.109.26 3.125Zm50.782 44.532v25.519c-1.016-.171-2.06-.26-3.125-.26s-2.109.089-3.125.26V68.49c1.016.171 2.06.26 3.125.26s2.109-.089 3.125-.26ZM94.01 115.625H68.491c.171-1.016.26-2.06.26-3.125s-.089-2.109-.26-3.125H94.01c-.171 1.016-.26 2.06-.26 3.125s.089 2.109.26 3.125ZM83.334 10.417c5.749 0 10.417 4.668 10.417 10.417s-4.668 10.417-10.417 10.417-10.417-4.668-10.417-10.417 4.668-10.417 10.417-10.417Zm29.167 29.167c5.749 0 10.417 4.668 10.417 10.417s-4.668 10.417-10.417 10.417-10.417-4.668-10.417-10.417 4.668-10.417 10.417-10.417Zm-62.5 62.5c5.749 0 10.417 4.668 10.417 10.417s-4.668 10.417-10.417 10.417-10.417-4.668-10.417-10.417 4.668-10.417 10.417-10.417ZM20.834 10.417c5.749 0 10.417 4.668 10.417 10.417s-4.668 10.417-10.417 10.417-10.417-4.668-10.417-10.417 4.668-10.417 10.417-10.417Zm0 62.5c5.749 0 10.417 4.668 10.417 10.417s-4.668 10.417-10.417 10.417-10.417-4.668-10.417-10.417 4.668-10.417 10.417-10.417Zm29.167-33.333c5.749 0 10.417 4.668 10.417 10.417S55.75 60.418 50.001 60.418 39.584 55.75 39.584 50.001s4.668-10.417 10.417-10.417Zm62.5 62.5c5.749 0 10.417 4.668 10.417 10.417s-4.668 10.417-10.417 10.417-10.417-4.668-10.417-10.417 4.668-10.417 10.417-10.417Z"/></svg>
